<svg xmlns="http://www.w3.org/2000/svg" viewBox="40 16 400 225" width="800" height="450">
  <defs>
    <linearGradient id="cRingGradG3F" x1="0" y1="0" x2="1" y2="1">
      <stop offset="0%" stop-color="#E23670"/>
      <stop offset="100%" stop-color="#FF6A3D"/>
    </linearGradient>
    <linearGradient id="triGradG3F" x1="0" y1="0" x2="0" y2="1">
      <stop offset="0%" stop-color="#FF4B3E"/>
      <stop offset="100%" stop-color="#A5122B"/>
    </linearGradient>
    <linearGradient id="camGradG3F" x1="0" y1="0" x2="0" y2="1">
      <stop offset="0%" stop-color="#3A4A52"/>
      <stop offset="100%" stop-color="#0F2A38"/>
    </linearGradient>
    <linearGradient id="screenGradG3F" x1="0" y1="0" x2="0" y2="1">
      <stop offset="0%" stop-color="#E23670"/>
      <stop offset="100%" stop-color="#FF6A3D"/>
    </linearGradient>
    <filter id="softShadowG3F" x="-50%" y="-50%" width="200%" height="200%">
      <feDropShadow dx="0" dy="2" stdDeviation="2.2" flood-color="#0a1b24" flood-opacity="0.4"/>
    </filter>
  </defs>

  <g transform="translate(130,148)">
    <line x1="-27" y1="-47" x2="-42" y2="-90" stroke="#0F2A38" stroke-width="6" stroke-linecap="round"/>
    <circle cx="-27" cy="-47" r="5" fill="#0F2A38"/>
    <g transform="translate(-42,-90) rotate(-19)" filter="url(#softShadowG3F)">
      <rect x="-17" y="-13" width="34" height="26" rx="6" fill="url(#camGradG3F)"/>
      <path d="M -17 -13 L 3 -13 L -9 3 L -17 3 Z" fill="#FFFFFF" opacity="0.18"/>
      <circle cx="9" cy="0" r="8.5" fill="#16232A"/>
      <circle cx="9" cy="0" r="8.5" fill="none" stroke="#7FDDE0" stroke-width="1.6" opacity="0.7"/>
      <circle cx="6.5" cy="-2.5" r="2.4" fill="#FFFFFF" opacity="0.5"/>
      <circle cx="-11" cy="-8" r="2.4" fill="#FF3B30"/>
    </g>

    <line x1="27" y1="-47" x2="42" y2="-90" stroke="#0F2A38" stroke-width="6" stroke-linecap="round"/>
    <circle cx="27" cy="-47" r="5" fill="#0F2A38"/>
    <g transform="translate(42,-90) rotate(19)" filter="url(#softShadowG3F)">
      <rect x="-13" y="-20" width="26" height="40" rx="6" fill="url(#camGradG3F)"/>
      <rect x="-10" y="-15" width="20" height="27" rx="2.5" fill="url(#screenGradG3F)"/>
      <path d="M -10 -15 L 6 -15 L -10 5 Z" fill="#FFFFFF" opacity="0.18"/>
      <path d="M -3.5 -6 L -3.5 4 L 4.5 -1 Z" fill="#FFFFFF"/>
      <circle cx="0" cy="-17.6" r="1.4" fill="#16232A"/>
      <rect x="-4" y="16.5" width="8" height="2" rx="1" fill="#FFFFFF" opacity="0.6"/>
    </g>

    <path d="M 41.4 34.7 A 54 54 0 1 1 41.4 -34.7" fill="none" stroke="url(#cRingGradG3F)" stroke-width="30" stroke-linecap="round"/>
    <g filter="url(#softShadowG3F)">
      <path d="M -17 -24 L -17 24 L 27 0 Z" fill="url(#triGradG3F)"/>
      <path d="M -17 -24 L 9 -10 L -17 -2 Z" fill="#FFFFFF" opacity="0.35"/>
    </g>
  </g>

  <text x="270" y="142" font-family="'Poppins','Segoe UI',Helvetica,Arial,sans-serif" font-size="42" font-weight="700" fill="#0F2A38">Content</text>
  <text x="270" y="186" font-family="'Poppins','Segoe UI',Helvetica,Arial,sans-serif" font-size="42" font-weight="700" fill="#FF6A3D">My Trip</text>
</svg>
